<svg width="66" height="68" viewBox="0 0 66 68" fill="none" xmlns="http://www.w3.org/2000/svg">
<rect x="8" y="8" width="50" height="52" rx="25" fill="white"/>
<path d="M17.4545 36C15.5545 36 14 34.4 14 32.4444V23.5556C14 21.6 15.5545 20 17.4545 20H31.2727C33.1727 20 34.7273 21.6 34.7273 23.5556V32.4444C34.7273 34.4 33.1727 36 31.2727 36H27.8182V41.3333L22.6364 36H17.4545ZM48.5455 46.6667C50.4455 46.6667 52 45.0667 52 43.1111V34.2222C52 32.2667 50.4455 30.6667 48.5455 30.6667H38.1818V32.4444C38.1818 36.3556 35.0727 39.5556 31.2727 39.5556V43.1111C31.2727 45.0667 32.8273 46.6667 34.7273 46.6667H38.1818V52L43.3636 46.6667H48.5455Z" fill="#FF9F04"/>
</svg>
