<svg width="28" height="28" viewBox="0 0 28 28" fill="none" xmlns="http://www.w3.org/2000/svg">
<path d="M26.6263 12.2027L2.44125 0.403985C2.20884 0.290727 1.95142 0.238469 1.69324 0.252129C1.43506 0.265789 1.1846 0.344918 0.965436 0.482069C0.74627 0.619219 0.565605 0.809881 0.440446 1.03611C0.315287 1.26234 0.249749 1.51669 0.250001 1.77524V1.81899C0.250125 2.02337 0.275312 2.22698 0.325001 2.42524L2.645 11.7052C2.6761 11.8289 2.74426 11.94 2.84033 12.0238C2.9364 12.1076 3.0558 12.16 3.1825 12.174L13.3788 13.3077C13.5484 13.3281 13.7047 13.41 13.8181 13.5378C13.9315 13.6657 13.9941 13.8306 13.9941 14.0015C13.9941 14.1724 13.9315 14.3373 13.8181 14.4651C13.7047 14.593 13.5484 14.6748 13.3788 14.6952L3.1825 15.829C3.0558 15.843 2.9364 15.8954 2.84033 15.9792C2.74426 16.063 2.6761 16.1741 2.645 16.2977L0.325001 25.5765C0.275312 25.7747 0.250125 25.9783 0.250001 26.1827V26.2265C0.249961 26.4849 0.315653 26.7391 0.440901 26.9652C0.566148 27.1912 0.746834 27.3817 0.965966 27.5187C1.1851 27.6557 1.43548 27.7348 1.69356 27.7484C1.95163 27.762 2.20893 27.7097 2.44125 27.5965L26.625 15.7977C26.9618 15.6334 27.2457 15.3778 27.4442 15.06C27.6428 14.7422 27.7481 14.375 27.7481 14.0002C27.7481 13.6255 27.6428 13.2583 27.4442 12.9405C27.2457 12.6227 26.9631 12.367 26.6263 12.2027Z" fill="#667085"/>
</svg>
