<svg width="35" height="31" viewBox="0 0 35 31" fill="none" xmlns="http://www.w3.org/2000/svg">
<path d="M0.416992 0.125H3.83366L6.10574 10.375H12.9391L15.2282 0.125H19.7724L22.0616 10.375H28.8949L31.167 0.125H34.5837L32.3116 10.375H34.5837V13.7917H31.5428L30.7912 17.2083H34.5837V20.625H30.0224L27.7503 30.875H23.1891L20.917 20.625H14.0837L11.8116 30.875H7.25033L4.97824 20.625H0.416992V17.2083H4.20949L3.45783 13.7917H0.416992V10.375H2.68908L0.416992 0.125ZM19.3966 13.7917H15.6041L14.8353 17.2083H20.1653L19.3966 13.7917ZM9.52241 25.75L10.667 20.625H8.39491L9.52241 25.75ZM12.1874 13.7917H6.87449L7.62616 17.2083H11.4187L12.1874 13.7917ZM25.4782 25.75L26.6057 20.625H24.3337L25.4782 25.75ZM28.1262 13.7917H22.8132L23.582 17.2083H27.3745L28.1262 13.7917ZM17.5003 5.25L16.3557 10.375H18.6449L17.5003 5.25Z" fill="#1820E8"/>
</svg>
