<svg width="68" height="57" viewBox="0 0 68 57" fill="none" xmlns="http://www.w3.org/2000/svg">
<rect x="11.5283" y="13.4839" width="45.1186" height="42.7016" fill="#D9D9D9"/>
<path d="M3.87402 25.5692C4.10861 -10.9199 66.8739 -4.38563 64.6456 25.5692" stroke="black"/>
<circle cx="22.8078" cy="29.1945" r="5.13983" fill="#D9D9D9" stroke="black"/>
<circle cx="46.9777" cy="29.1945" r="5.13983" fill="#D9D9D9" stroke="black"/>
<path d="M20.7939 42.4888H45.3675" stroke="black"/>
<ellipse cx="5.28408" cy="34.2305" rx="4.63272" ry="8.25832" fill="#1E1E1E"/>
<ellipse cx="63.4948" cy="34.2305" rx="4.43129" ry="8.25832" fill="#1E1E1E"/>
<path d="M50.2012 13.4837C50.2012 12.7431 49.7844 12.0097 48.9746 11.3254C48.1648 10.6412 46.9779 10.0195 45.4816 9.49575C43.9853 8.97204 42.2089 8.55661 40.2539 8.27318C38.2989 7.98976 36.2035 7.84388 34.0874 7.84388C31.9713 7.84388 29.876 7.98976 27.9209 8.27318C25.9659 8.55661 24.1896 8.97204 22.6933 9.49575C21.1969 10.0195 20.01 10.6412 19.2002 11.3254C18.3904 12.0097 17.9736 12.7431 17.9736 13.4837L34.0874 13.4837H50.2012Z" fill="#373434"/>
</svg>
