<svg width="40" height="40" viewBox="0 0 40 40" fill="none" xmlns="http://www.w3.org/2000/svg">
<path d="M18.333 6.66688H6.66634C5.78229 6.66688 4.93444 7.01807 4.30932 7.64319C3.6842 8.26831 3.33301 9.11616 3.33301 10.0002V33.3335C3.33301 34.2176 3.6842 35.0654 4.30932 35.6906C4.93444 36.3157 5.78229 36.6669 6.66634 36.6669H29.9997C30.8837 36.6669 31.7316 36.3157 32.3567 35.6906C32.9818 35.0654 33.333 34.2176 33.333 33.3335V21.6669M30.833 4.16688C31.496 3.50384 32.3953 3.13135 33.333 3.13135C34.2707 3.13135 35.17 3.50384 35.833 4.16688C36.496 4.82992 36.8685 5.7292 36.8685 6.66688C36.8685 7.60456 36.496 8.50384 35.833 9.16688L19.9997 25.0002L13.333 26.6669L14.9997 20.0002L30.833 4.16688Z" stroke="#FF9F04" stroke-width="4" stroke-linecap="round" stroke-linejoin="round"/>
</svg>
