<svg width="40" height="40" viewBox="0 0 40 40" fill="none" xmlns="http://www.w3.org/2000/svg">
<mask id="path-1-inside-1_857_2978" fill="white">
<path fill-rule="evenodd" clip-rule="evenodd" d="M1.48294 17.2293C1.0128 17.6993 0.639852 18.2574 0.385407 18.8716C0.130962 19.4858 0 20.1441 0 20.8089C0 21.4737 0.130962 22.132 0.385407 22.7462C0.639852 23.3604 1.0128 23.9184 1.48294 24.3885L7.21047 30.1142C7.9617 30.8648 8.92996 31.36 9.97821 31.5299C11.0265 31.6998 12.1016 31.5356 13.0514 31.0607C14.0012 30.5858 14.7776 29.8241 15.2706 28.8836C15.7637 27.9431 15.9484 26.8712 15.7987 25.8199L17.7686 23.8499L30.074 38.0508C30.5827 38.6372 31.2067 39.1126 31.9071 39.4473C32.6076 39.782 33.3694 39.969 34.1452 39.9965C34.921 40.0239 35.6941 39.8914 36.4165 39.607C37.1388 39.3227 37.7949 38.8927 38.3438 38.3437C38.8927 37.7948 39.3227 37.1387 39.6071 36.4163C39.8914 35.694 40.0239 34.9208 39.9965 34.145C39.969 33.3692 39.7821 32.6073 39.4473 31.9069C39.1126 31.2064 38.6373 30.5824 38.0509 30.0737L23.8525 17.7658L25.8204 15.7979C26.8721 15.9481 27.9445 15.7637 28.8855 15.2705C29.8265 14.7774 30.5886 14.0007 31.0636 13.0503C31.5386 12.1 31.7026 11.0243 31.5323 9.9756C31.3619 8.9269 30.8659 7.95839 30.1145 7.20729L24.389 1.4836C23.6378 0.731939 22.6691 0.23578 21.6202 0.0654475C20.5713 -0.104885 19.4954 0.0592501 18.545 0.534589C17.5946 1.00993 16.8179 1.77235 16.3249 2.71381C15.832 3.65526 15.6479 4.72797 15.7987 5.77991L5.77707 15.7999C4.99964 15.6892 4.20711 15.7609 3.46217 16.0093C2.71723 16.2577 2.04031 16.6761 1.48496 17.2313M22.243 13.6517L13.6547 22.2403L9.35855 17.946L17.9488 9.35544L22.243 13.6517ZM4.34569 21.5256C4.25157 21.4316 4.17689 21.32 4.1259 21.1972C4.07491 21.0743 4.04862 20.9426 4.04853 20.8096C4.04843 20.6766 4.07454 20.5449 4.12535 20.4219C4.17616 20.299 4.25069 20.1873 4.34468 20.0932C4.43866 19.9991 4.55027 19.9244 4.67312 19.8734C4.79596 19.8224 4.92765 19.7961 5.06066 19.796C5.19367 19.7959 5.3254 19.822 5.44832 19.8728C5.57124 19.9236 5.68295 19.9982 5.77707 20.0922L11.5046 25.8199C11.6013 25.9133 11.6784 26.025 11.7315 26.1485C11.7845 26.272 11.8124 26.4048 11.8136 26.5393C11.8148 26.6737 11.7892 26.807 11.7383 26.9314C11.6874 27.0558 11.6122 27.1688 11.5171 27.2639C11.4221 27.3589 11.3091 27.4341 11.1847 27.485C11.0603 27.5359 10.927 27.5615 10.7926 27.5603C10.6581 27.5592 10.5253 27.5312 10.4018 27.4782C10.2783 27.4251 10.1666 27.348 10.0732 27.2513L4.34569 21.5256ZM20.0929 5.77586C19.9962 5.68247 19.9191 5.57077 19.866 5.44726C19.813 5.32375 19.785 5.19092 19.7839 5.0565C19.7827 4.92209 19.8083 4.78878 19.8592 4.66437C19.9101 4.53996 19.9853 4.42693 20.0803 4.33188C20.1754 4.23683 20.2884 4.16167 20.4128 4.11076C20.5372 4.05986 20.6705 4.03425 20.8049 4.03542C20.9393 4.03659 21.0722 4.06451 21.1957 4.11757C21.3192 4.17062 21.4309 4.24774 21.5242 4.34443L27.2518 10.0722C27.3485 10.1656 27.4256 10.2773 27.4786 10.4008C27.5317 10.5243 27.5596 10.6571 27.5608 10.7915C27.5619 10.9259 27.5363 11.0592 27.4854 11.1837C27.4345 11.3081 27.3594 11.4211 27.2643 11.5161C27.1693 11.6112 27.0562 11.6864 26.9318 11.7373C26.8074 11.7882 26.6741 11.8138 26.5397 11.8126C26.4053 11.8114 26.2725 11.7835 26.149 11.7305C26.0255 11.6774 25.9138 11.6003 25.8204 11.5036L20.0929 5.77586ZM33.1352 35.3985L20.9715 21.3636L21.3643 20.9688L35.4007 33.1329C35.5624 33.2788 35.6927 33.4561 35.7837 33.6539C35.8747 33.8518 35.9245 34.0661 35.93 34.2837C35.9356 34.5014 35.8969 34.718 35.8161 34.9202C35.7354 35.1225 35.6143 35.3062 35.4603 35.4602C35.3064 35.6142 35.1227 35.7352 34.9204 35.816C34.7182 35.8967 34.5016 35.9355 34.284 35.9299C34.0663 35.9243 33.852 35.8745 33.6542 35.7835C33.4563 35.6925 33.2791 35.5622 33.1332 35.4005"/>
</mask>
<path fill-rule="evenodd" clip-rule="evenodd" d="M1.48294 17.2293C1.0128 17.6993 0.639852 18.2574 0.385407 18.8716C0.130962 19.4858 0 20.1441 0 20.8089C0 21.4737 0.130962 22.132 0.385407 22.7462C0.639852 23.3604 1.0128 23.9184 1.48294 24.3885L7.21047 30.1142C7.9617 30.8648 8.92996 31.36 9.97821 31.5299C11.0265 31.6998 12.1016 31.5356 13.0514 31.0607C14.0012 30.5858 14.7776 29.8241 15.2706 28.8836C15.7637 27.9431 15.9484 26.8712 15.7987 25.8199L17.7686 23.8499L30.074 38.0508C30.5827 38.6372 31.2067 39.1126 31.9071 39.4473C32.6076 39.782 33.3694 39.969 34.1452 39.9965C34.921 40.0239 35.6941 39.8914 36.4165 39.607C37.1388 39.3227 37.7949 38.8927 38.3438 38.3437C38.8927 37.7948 39.3227 37.1387 39.6071 36.4163C39.8914 35.694 40.0239 34.9208 39.9965 34.145C39.969 33.3692 39.7821 32.6073 39.4473 31.9069C39.1126 31.2064 38.6373 30.5824 38.0509 30.0737L23.8525 17.7658L25.8204 15.7979C26.8721 15.9481 27.9445 15.7637 28.8855 15.2705C29.8265 14.7774 30.5886 14.0007 31.0636 13.0503C31.5386 12.1 31.7026 11.0243 31.5323 9.9756C31.3619 8.9269 30.8659 7.95839 30.1145 7.20729L24.389 1.4836C23.6378 0.731939 22.6691 0.23578 21.6202 0.0654475C20.5713 -0.104885 19.4954 0.0592501 18.545 0.534589C17.5946 1.00993 16.8179 1.77235 16.3249 2.71381C15.832 3.65526 15.6479 4.72797 15.7987 5.77991L5.77707 15.7999C4.99964 15.6892 4.20711 15.7609 3.46217 16.0093C2.71723 16.2577 2.04031 16.6761 1.48496 17.2313M22.243 13.6517L13.6547 22.2403L9.35855 17.946L17.9488 9.35544L22.243 13.6517ZM4.34569 21.5256C4.25157 21.4316 4.17689 21.32 4.1259 21.1972C4.07491 21.0743 4.04862 20.9426 4.04853 20.8096C4.04843 20.6766 4.07454 20.5449 4.12535 20.4219C4.17616 20.299 4.25069 20.1873 4.34468 20.0932C4.43866 19.9991 4.55027 19.9244 4.67312 19.8734C4.79596 19.8224 4.92765 19.7961 5.06066 19.796C5.19367 19.7959 5.3254 19.822 5.44832 19.8728C5.57124 19.9236 5.68295 19.9982 5.77707 20.0922L11.5046 25.8199C11.6013 25.9133 11.6784 26.025 11.7315 26.1485C11.7845 26.272 11.8124 26.4048 11.8136 26.5393C11.8148 26.6737 11.7892 26.807 11.7383 26.9314C11.6874 27.0558 11.6122 27.1688 11.5171 27.2639C11.4221 27.3589 11.3091 27.4341 11.1847 27.485C11.0603 27.5359 10.927 27.5615 10.7926 27.5603C10.6581 27.5592 10.5253 27.5312 10.4018 27.4782C10.2783 27.4251 10.1666 27.348 10.0732 27.2513L4.34569 21.5256ZM20.0929 5.77586C19.9962 5.68247 19.9191 5.57077 19.866 5.44726C19.813 5.32375 19.785 5.19092 19.7839 5.0565C19.7827 4.92209 19.8083 4.78878 19.8592 4.66437C19.9101 4.53996 19.9853 4.42693 20.0803 4.33188C20.1754 4.23683 20.2884 4.16167 20.4128 4.11076C20.5372 4.05986 20.6705 4.03425 20.8049 4.03542C20.9393 4.03659 21.0722 4.06451 21.1957 4.11757C21.3192 4.17062 21.4309 4.24774 21.5242 4.34443L27.2518 10.0722C27.3485 10.1656 27.4256 10.2773 27.4786 10.4008C27.5317 10.5243 27.5596 10.6571 27.5608 10.7915C27.5619 10.9259 27.5363 11.0592 27.4854 11.1837C27.4345 11.3081 27.3594 11.4211 27.2643 11.5161C27.1693 11.6112 27.0562 11.6864 26.9318 11.7373C26.8074 11.7882 26.6741 11.8138 26.5397 11.8126C26.4053 11.8114 26.2725 11.7835 26.149 11.7305C26.0255 11.6774 25.9138 11.6003 25.8204 11.5036L20.0929 5.77586ZM33.1352 35.3985L20.9715 21.3636L21.3643 20.9688L35.4007 33.1329C35.5624 33.2788 35.6927 33.4561 35.7837 33.6539C35.8747 33.8518 35.9245 34.0661 35.93 34.2837C35.9356 34.5014 35.8969 34.718 35.8161 34.9202C35.7354 35.1225 35.6143 35.3062 35.4603 35.4602C35.3064 35.6142 35.1227 35.7352 34.9204 35.816C34.7182 35.8967 34.5016 35.9355 34.284 35.9299C34.0663 35.9243 33.852 35.8745 33.6542 35.7835C33.4563 35.6925 33.2791 35.5622 33.1332 35.4005" fill="#FF9F04"/>
<path d="M0 20.8089H-1H0ZM1.48294 24.3885L0.77591 25.0957L0.775941 25.0957L1.48294 24.3885ZM7.21047 30.1142L6.50347 30.8214L6.50367 30.8216L7.21047 30.1142ZM15.7987 25.8199L15.0916 25.1128L14.7383 25.4662L14.8087 25.9609L15.7987 25.8199ZM17.7686 23.8499L18.5244 23.195L17.821 22.3833L17.0615 23.1428L17.7686 23.8499ZM30.074 38.0508L29.3183 38.7057L29.3187 38.7061L30.074 38.0508ZM38.0509 30.0737L38.7062 29.3183L38.7059 29.3181L38.0509 30.0737ZM23.8525 17.7658L23.1454 17.0587L22.3861 17.8181L23.1975 18.5215L23.8525 17.7658ZM25.8204 15.7979L25.9618 14.8079L25.4668 14.7372L25.1133 15.0908L25.8204 15.7979ZM30.1145 7.20729L29.4075 7.91451L29.4076 7.91453L30.1145 7.20729ZM24.389 1.4836L23.6817 2.19048L23.682 2.19082L24.389 1.4836ZM15.7987 5.77991L16.5058 6.48707L16.8596 6.1333L16.7886 5.63801L15.7987 5.77991ZM5.77707 15.7999L5.63607 16.7899L6.13076 16.8604L6.48412 16.5071L5.77707 15.7999ZM3.46217 16.0093L3.77854 16.9579L3.46217 16.0093ZM22.243 13.6517L22.9501 14.3588L23.657 13.6519L22.9503 12.9448L22.243 13.6517ZM13.6547 22.2403L12.9477 22.9476L13.6549 23.6544L14.3618 22.9474L13.6547 22.2403ZM9.35855 17.946L8.65143 17.2389L7.94419 17.9462L8.65159 18.6533L9.35855 17.946ZM17.9488 9.35544L18.6561 8.64851L17.949 7.94104L17.2417 8.64835L17.9488 9.35544ZM4.34569 21.5256L5.05268 20.8184L5.05231 20.818L4.34569 21.5256ZM5.77707 20.0922L6.48419 19.3851L6.48369 19.3846L5.77707 20.0922ZM11.5046 25.8199L10.7975 26.527L10.8036 26.5331L10.8099 26.5392L11.5046 25.8199ZM10.0732 27.2513L10.7925 26.5566L10.7864 26.5503L10.7802 26.5441L10.0732 27.2513ZM20.0929 5.77586L20.8 5.06876L20.7938 5.06262L20.7876 5.05658L20.0929 5.77586ZM21.5242 4.34443L20.8049 5.03913L20.811 5.04538L20.8171 5.05153L21.5242 4.34443ZM27.2518 10.0722L26.5447 10.7793L26.5508 10.7854L26.557 10.7914L27.2518 10.0722ZM25.8204 11.5036L26.5397 10.8089L26.5337 10.8026L26.5275 10.7965L25.8204 11.5036ZM20.9715 21.3636L20.2626 20.6584L19.6076 21.3168L20.2158 22.0186L20.9715 21.3636ZM21.3643 20.9688L22.0192 20.2131L21.3137 19.6018L20.6554 20.2636L21.3643 20.9688ZM35.4007 33.1329L36.0707 32.3906L36.0632 32.3838L36.0556 32.3772L35.4007 33.1329ZM0.77591 16.5221C0.212885 17.085 -0.233738 17.7533 -0.538452 18.4888L1.30927 19.2543C1.51344 18.7615 1.81271 18.3137 2.18996 17.9365L0.77591 16.5221ZM-0.538452 18.4888C-0.843165 19.2244 -1 20.0127 -1 20.8089H1C1 20.2754 1.10509 19.7472 1.30927 19.2543L-0.538452 18.4888ZM-1 20.8089C-1 21.605 -0.843165 22.3934 -0.538452 23.1289L1.30927 22.3635C1.10509 21.8706 1 21.3424 1 20.8089H-1ZM-0.538452 23.1289C-0.233738 23.8645 0.212885 24.5328 0.77591 25.0957L2.18996 23.6813C1.81271 23.3041 1.51344 22.8563 1.30927 22.3635L-0.538452 23.1289ZM0.775941 25.0957L6.50347 30.8214L7.91746 29.407L2.18993 23.6813L0.775941 25.0957ZM6.50367 30.8216C7.40332 31.7205 8.56289 32.3136 9.81824 32.517L10.1382 30.5428C9.29704 30.4065 8.52008 30.0091 7.91727 29.4068L6.50367 30.8216ZM9.81824 32.517C11.0736 32.7205 12.3611 32.5239 13.4986 31.9551L12.6042 30.1663C11.842 30.5474 10.9793 30.6791 10.1382 30.5428L9.81824 32.517ZM13.4986 31.9551C14.6361 31.3864 15.5658 30.4743 16.1563 29.3479L14.3849 28.4193C13.9893 29.174 13.3663 29.7852 12.6042 30.1663L13.4986 31.9551ZM16.1563 29.3479C16.7468 28.2215 16.968 26.938 16.7887 25.6789L14.8087 25.9609C14.9288 26.8045 14.7806 27.6646 14.3849 28.4193L16.1563 29.3479ZM16.5059 26.527L18.4758 24.557L17.0615 23.1428L15.0916 25.1128L16.5059 26.527ZM17.0129 24.5048L29.3183 38.7057L30.8298 37.3959L18.5244 23.195L17.0129 24.5048ZM29.3187 38.7061C29.9173 39.3962 30.6517 39.9556 31.4759 40.3496L32.3383 38.5451C31.7618 38.2695 31.2482 37.8782 30.8294 37.3955L29.3187 38.7061ZM31.4759 40.3496C32.3002 40.7435 33.1968 40.9635 34.1098 40.9958L34.1806 38.9971C33.542 38.9745 32.9149 38.8206 32.3383 38.5451L31.4759 40.3496ZM34.1098 40.9958C35.0228 41.0282 35.9327 40.8722 36.7828 40.5375L36.0502 38.6765C35.4556 38.9106 34.8192 39.0197 34.1806 38.9971L34.1098 40.9958ZM36.7828 40.5375C37.6328 40.2029 38.4049 39.6968 39.0509 39.0508L37.6367 37.6366C37.1848 38.0885 36.6448 38.4425 36.0502 38.6765L36.7828 40.5375ZM39.0509 39.0508C39.6969 38.4048 40.203 37.6327 40.5376 36.7826L38.6765 36.0501C38.4425 36.6447 38.0885 37.1848 37.6367 37.6366L39.0509 39.0508ZM40.5376 36.7826C40.8722 35.9325 41.0282 35.0226 40.9958 34.1096L38.9971 34.1804C39.0197 34.819 38.9106 35.4555 38.6765 36.0501L40.5376 36.7826ZM40.9958 34.1096C40.9635 33.1966 40.7435 32.3 40.3496 31.4757L38.5451 32.338C38.8206 32.9146 38.9745 33.5417 38.9971 34.1804L40.9958 34.1096ZM40.3496 31.4757C39.9557 30.6514 39.3963 29.917 38.7062 29.3183L37.3956 30.829C37.8782 31.2478 38.2695 31.7615 38.5451 32.338L40.3496 31.4757ZM38.7059 29.3181L24.5075 17.0102L23.1975 18.5215L37.3959 30.8293L38.7059 29.3181ZM24.5596 18.4729L26.5275 16.505L25.1133 15.0908L23.1454 17.0587L24.5596 18.4729ZM25.679 16.7878C26.9385 16.9678 28.2227 16.7468 29.3497 16.1563L28.4214 14.3848C27.6662 14.7805 26.8058 14.9285 25.9618 14.8079L25.679 16.7878ZM29.3497 16.1563C30.4766 15.5657 31.3892 14.6355 31.9581 13.4975L30.1691 12.6032C29.7879 13.3658 29.1765 13.9891 28.4214 14.3848L29.3497 16.1563ZM31.9581 13.4975C32.527 12.3594 32.7233 11.0712 32.5193 9.81528L30.5452 10.1359C30.6819 10.9774 30.5503 11.8406 30.1691 12.6032L31.9581 13.4975ZM32.5193 9.81528C32.3153 8.5594 31.7213 7.39955 30.8215 6.50005L29.4076 7.91453C30.0105 8.51724 30.4085 9.29441 30.5452 10.1359L32.5193 9.81528ZM30.8215 6.50007L25.096 0.776381L23.682 2.19082L29.4075 7.91451L30.8215 6.50007ZM25.0964 0.776719C24.1968 -0.123447 23.0367 -0.717636 21.7805 -0.921622L21.4599 1.05252C22.3016 1.1892 23.0789 1.58733 23.6817 2.19048L25.0964 0.776719ZM21.7805 -0.921622C20.5244 -1.12561 19.2359 -0.929044 18.0977 -0.35979L18.9923 1.42897C19.7549 1.04754 20.6183 0.915839 21.4599 1.05252L21.7805 -0.921622ZM18.0977 -0.35979C16.9595 0.209463 16.0293 1.12252 15.439 2.24997L17.2109 3.17764C17.6064 2.42219 18.2297 1.81039 18.9923 1.42897L18.0977 -0.35979ZM15.439 2.24997C14.8487 3.37742 14.6283 4.66206 14.8089 5.92181L16.7886 5.63801C16.6676 4.79389 16.8153 3.9331 17.2109 3.17764L15.439 2.24997ZM15.0917 5.07274L5.07002 15.0927L6.48412 16.5071L16.5058 6.48707L15.0917 5.07274ZM5.91807 14.8099C4.98704 14.6773 4.03792 14.7631 3.1458 15.0607L3.77854 16.9579C4.3763 16.7586 5.01224 16.7011 5.63607 16.7899L5.91807 14.8099ZM3.1458 15.0607C2.25367 15.3582 1.44302 15.8592 0.777944 16.5241L2.19198 17.9385C2.63761 17.493 3.18079 17.1573 3.77854 16.9579L3.1458 15.0607ZM21.5358 12.9447L12.9476 21.5332L14.3618 22.9474L22.9501 14.3588L21.5358 12.9447ZM14.3617 21.5331L10.0655 17.2388L8.65159 18.6533L12.9477 22.9476L14.3617 21.5331ZM10.0657 18.6531L18.656 10.0625L17.2417 8.64835L8.65143 17.2389L10.0657 18.6531ZM17.2415 10.0624L21.5357 14.3587L22.9503 12.9448L18.6561 8.64851L17.2415 10.0624ZM5.05231 20.818C5.05111 20.8168 5.05016 20.8154 5.04951 20.8138L3.20229 21.5805C3.30361 21.8246 3.45203 22.0464 3.63907 22.2332L5.05231 20.818ZM5.04951 20.8138C5.04886 20.8123 5.04853 20.8106 5.04853 20.8089L3.04853 20.8103C3.04871 21.0746 3.10096 21.3363 3.20229 21.5805L5.04951 20.8138ZM5.04853 20.8089C5.04852 20.8072 5.04886 20.8055 5.04951 20.804L3.2012 20.0399C3.10022 20.2842 3.04834 20.546 3.04853 20.8103L5.04853 20.8089ZM5.04951 20.804C5.05015 20.8024 5.0511 20.801 5.0523 20.7998L3.63706 19.3866C3.45028 19.5736 3.30218 19.7956 3.2012 20.0399L5.04951 20.804ZM5.0523 20.7998C5.05349 20.7986 5.05491 20.7976 5.05646 20.797L4.28977 18.9498C4.04563 19.0511 3.82383 19.1995 3.63706 19.3866L5.0523 20.7998ZM5.05646 20.797C5.05802 20.7963 5.05969 20.796 5.06137 20.796L5.05996 18.796C4.79562 18.7962 4.53391 18.8484 4.28977 18.9498L5.05646 20.797ZM5.06137 20.796C5.06306 20.796 5.06472 20.7963 5.06628 20.797L5.83036 18.9487C5.58607 18.8477 5.32429 18.7958 5.05996 18.796L5.06137 20.796ZM5.06628 20.797C5.06783 20.7976 5.06925 20.7986 5.07045 20.7998L6.48369 19.3846C6.29665 19.1978 6.07465 19.0497 5.83036 18.9487L5.06628 20.797ZM5.06995 20.7993L10.7975 26.527L12.2117 25.1128L6.48419 19.3851L5.06995 20.7993ZM10.8099 26.5392C10.811 26.5403 10.812 26.5417 10.8126 26.5432L12.6503 25.7538C12.5448 25.5083 12.3915 25.2863 12.1993 25.1006L10.8099 26.5392ZM10.8126 26.5432C10.8133 26.5447 10.8136 26.5463 10.8136 26.5479L12.8136 26.5306C12.8112 26.2634 12.7557 25.9993 12.6503 25.7538L10.8126 26.5432ZM10.8136 26.5479C10.8137 26.5496 10.8133 26.5512 10.8127 26.5527L12.6638 27.31C12.765 27.0627 12.8159 26.7978 12.8136 26.5306L10.8136 26.5479ZM10.8127 26.5527C10.8121 26.5542 10.8112 26.5556 10.81 26.5568L12.2243 27.971C12.4132 27.782 12.5626 27.5573 12.6638 27.31L10.8127 26.5527ZM10.81 26.5568C10.8089 26.5579 10.8075 26.5588 10.806 26.5595L11.5633 28.4105C11.8106 28.3093 12.0353 28.1599 12.2243 27.971L10.81 26.5568ZM10.806 26.5595C10.8045 26.5601 10.8029 26.5604 10.8012 26.5604L10.7839 28.5603C11.0511 28.5626 11.316 28.5117 11.5633 28.4105L10.806 26.5595ZM10.8012 26.5604C10.7996 26.5604 10.798 26.56 10.7965 26.5594L10.0071 28.397C10.2526 28.5025 10.5167 28.558 10.7839 28.5603L10.8012 26.5604ZM10.7965 26.5594C10.795 26.5587 10.7937 26.5578 10.7925 26.5566L9.35392 27.946C9.53955 28.1382 9.76159 28.2915 10.0071 28.397L10.7965 26.5594ZM10.7802 26.5441L5.05268 20.8184L3.6387 22.2328L9.36623 27.9585L10.7802 26.5441ZM20.7876 5.05658C20.7864 5.05545 20.7855 5.05409 20.7848 5.05258L18.9472 5.84194C19.0526 6.08746 19.2059 6.3095 19.3981 6.49513L20.7876 5.05658ZM20.7848 5.05258C20.7842 5.05108 20.7838 5.04946 20.7838 5.04781L18.7839 5.06519C18.7862 5.33238 18.8417 5.59643 18.9472 5.84194L20.7848 5.05258ZM20.7838 5.04781C20.7838 5.04617 20.7841 5.04454 20.7847 5.04303L18.9337 4.28572C18.8325 4.53302 18.7816 4.798 18.7839 5.06519L20.7838 5.04781ZM20.7847 5.04303C20.7854 5.04151 20.7863 5.04013 20.7874 5.03898L19.3732 3.62479C19.1843 3.81374 19.0348 4.03842 18.9337 4.28572L20.7847 5.04303ZM20.7874 5.03898C20.7886 5.03782 20.79 5.03691 20.7915 5.03629L20.0341 3.18524C19.7868 3.28642 19.5621 3.43584 19.3732 3.62479L20.7874 5.03898ZM20.7915 5.03629C20.793 5.03568 20.7946 5.03537 20.7962 5.03538L20.8136 3.03546C20.5464 3.03313 20.2814 3.08405 20.0341 3.18524L20.7915 5.03629ZM20.7962 5.03538C20.7978 5.03539 20.7995 5.03573 20.801 5.03638L21.5904 3.19876C21.3449 3.09329 21.0808 3.03778 20.8136 3.03546L20.7962 5.03538ZM20.801 5.03638C20.8024 5.03702 20.8038 5.03796 20.8049 5.03913L22.2435 3.64973C22.0579 3.45753 21.8359 3.30423 21.5904 3.19876L20.801 5.03638ZM20.8171 5.05153L26.5447 10.7793L27.9589 9.36507L22.2314 3.63734L20.8171 5.05153ZM26.557 10.7914C26.5582 10.7926 26.5592 10.7939 26.5598 10.7954L28.3974 10.0061C28.292 9.76057 28.1387 9.53852 27.9465 9.35289L26.557 10.7914ZM26.5598 10.7954C26.5605 10.797 26.5608 10.7986 26.5608 10.8002L28.5607 10.7828C28.5584 10.5156 28.5029 10.2516 28.3974 10.0061L26.5598 10.7954ZM26.5608 10.8002C26.5608 10.8019 26.5605 10.8035 26.5599 10.805L28.411 11.5623C28.5121 11.315 28.5631 11.05 28.5607 10.7828L26.5608 10.8002ZM26.5599 10.805C26.5593 10.8065 26.5584 10.8079 26.5572 10.809L27.9714 12.2232C28.1604 12.0343 28.3098 11.8096 28.411 11.5623L26.5599 10.805ZM26.5572 10.809C26.556 10.8102 26.5547 10.8111 26.5532 10.8117L27.3105 12.6628C27.5578 12.5616 27.7825 12.4122 27.9714 12.2232L26.5572 10.809ZM26.5532 10.8117C26.5517 10.8124 26.55 10.8127 26.5484 10.8126L26.531 12.8126C26.7982 12.8149 27.0632 12.764 27.3105 12.6628L26.5532 10.8117ZM26.5484 10.8126C26.5468 10.8126 26.5452 10.8123 26.5437 10.8117L25.7543 12.6493C25.9998 12.7547 26.2638 12.8102 26.531 12.8126L26.5484 10.8126ZM26.5437 10.8117C26.5422 10.811 26.5408 10.8101 26.5397 10.8089L25.1011 12.1983C25.2867 12.3905 25.5088 12.5438 25.7543 12.6493L26.5437 10.8117ZM26.5275 10.7965L20.8 5.06876L19.3857 6.48295L25.1133 12.2107L26.5275 10.7965ZM33.8909 34.7436L21.7272 20.7087L20.2158 22.0186L32.3795 36.0535L33.8909 34.7436ZM21.6805 22.0689L22.0732 21.6741L20.6554 20.2636L20.2626 20.6584L21.6805 22.0689ZM20.7094 21.7245L34.7458 33.8886L36.0556 32.3772L22.0192 20.2131L20.7094 21.7245ZM34.7307 33.8753C34.7917 33.9303 34.8408 33.9972 34.8752 34.0718L36.6922 33.2361C36.5445 32.915 36.333 32.6273 36.0707 32.3906L34.7307 33.8753ZM34.8752 34.0718C34.9095 34.1464 34.9283 34.2273 34.9304 34.3094L36.9297 34.2581C36.9207 33.9049 36.8398 33.5571 36.6922 33.2361L34.8752 34.0718ZM34.9304 34.3094C34.9325 34.3915 34.9179 34.4731 34.8874 34.5494L36.7448 35.291C36.8759 34.9629 36.9388 34.6114 36.9297 34.2581L34.9304 34.3094ZM34.8874 34.5494C34.8569 34.6257 34.8113 34.695 34.7532 34.7531L36.1674 36.1673C36.4173 35.9174 36.6138 35.6192 36.7448 35.291L34.8874 34.5494ZM34.7532 34.7531C34.6951 34.8111 34.6259 34.8568 34.5496 34.8873L35.2913 36.7447C35.6195 36.6136 35.9176 36.4172 36.1674 36.1673L34.7532 34.7531ZM34.5496 34.8873C34.4733 34.9177 34.3917 34.9323 34.3096 34.9302L34.2583 36.9296C34.6116 36.9386 34.9631 36.8757 35.2913 36.7447L34.5496 34.8873ZM34.3096 34.9302C34.2275 34.9281 34.1467 34.9093 34.0721 34.875L33.2363 36.692C33.5573 36.8397 33.9051 36.9205 34.2583 36.9296L34.3096 34.9302ZM34.0721 34.875C33.9974 34.8407 33.9306 34.7916 33.8756 34.7306L32.3908 36.0705C32.6275 36.3329 32.9152 36.5443 33.2363 36.692L34.0721 34.875Z" fill="#FF9F04" mask="url(#path-1-inside-1_857_2978)"/>
</svg>
