<svg width="34" height="34" viewBox="0 0 34 34" fill="none" xmlns="http://www.w3.org/2000/svg">
<path d="M2.64648 27V17.25C2.64648 13.3712 4.18733 9.65128 6.93005 6.90856C9.67277 4.16584 13.3927 2.625 17.2715 2.625C21.1503 2.625 24.8702 4.16584 27.6129 6.90856C30.3556 9.65128 31.8965 13.3712 31.8965 17.25V27M31.8965 28.625C31.8965 29.487 31.5541 30.3136 30.9446 30.9231C30.3351 31.5326 29.5084 31.875 28.6465 31.875H27.0215C26.1595 31.875 25.3329 31.5326 24.7234 30.9231C24.1139 30.3136 23.7715 29.487 23.7715 28.625V23.75C23.7715 22.888 24.1139 22.0614 24.7234 21.4519C25.3329 20.8424 26.1595 20.5 27.0215 20.5H31.8965V28.625ZM2.64648 28.625C2.64648 29.487 2.98889 30.3136 3.59839 30.9231C4.20788 31.5326 5.03453 31.875 5.89648 31.875H7.52148C8.38344 31.875 9.21009 31.5326 9.81958 30.9231C10.4291 30.3136 10.7715 29.487 10.7715 28.625V23.75C10.7715 22.888 10.4291 22.0614 9.81958 21.4519C9.21009 20.8424 8.38344 20.5 7.52148 20.5H2.64648V28.625Z" stroke="#FF9F04" stroke-width="4" stroke-linecap="round" stroke-linejoin="round"/>
</svg>
