<svg width="36" height="35" viewBox="0 0 36 35" fill="none" xmlns="http://www.w3.org/2000/svg">
<g clip-path="url(#clip0_857_2945)">
<path d="M1.5 1.4585H7.5L11.52 20.9856C11.6572 21.657 12.0329 22.2601 12.5813 22.6893C13.1298 23.1186 13.816 23.3466 14.52 23.3335H29.1C29.804 23.3466 30.4902 23.1186 31.0387 22.6893C31.5871 22.2601 31.9628 21.657 32.1 20.9856L34.5 8.75016H9M15 30.6252C15 31.4306 14.3284 32.0835 13.5 32.0835C12.6716 32.0835 12 31.4306 12 30.6252C12 29.8197 12.6716 29.1668 13.5 29.1668C14.3284 29.1668 15 29.8197 15 30.6252ZM31.5 30.6252C31.5 31.4306 30.8284 32.0835 30 32.0835C29.1716 32.0835 28.5 31.4306 28.5 30.6252C28.5 29.8197 29.1716 29.1668 30 29.1668C30.8284 29.1668 31.5 29.8197 31.5 30.6252Z" stroke="#FF9F04" stroke-width="4" stroke-linecap="round" stroke-linejoin="round"/>
</g>
<defs>
<clipPath id="clip0_857_2945">
<rect width="36" height="35" fill="white"/>
</clipPath>
</defs>
</svg>
